<svg xmlns="http://www.w3.org/2000/svg" viewBox="0 0 974.86 121.15"><defs><style>.cls-1{font-size:96.55px;fill:#e9c469;font-family:LEMONMILK-Bold, LEMON MILK;font-weight:700;}.cls-2{fill:#fffef9;letter-spacing:0em;}.cls-3{letter-spacing:-0.06em;}.cls-4{fill:#e86f51;}.cls-5{fill:none;stroke:#e86f51;stroke-miterlimit:10;stroke-width:10px;}</style></defs><g id="Layer_2" data-name="Layer 2"><g id="Layer_1-2" data-name="Layer 1"><text class="cls-1" transform="translate(139.41 92.02)">GROUND<tspan class="cls-2" x="479.7" y="0"> </tspan><tspan class="cls-3" x="509.16" y="0">W</tspan><tspan x="602.84" y="0">ORK</tspan></text><rect class="cls-4" width="26.27" height="26.27" rx="3.1"/><rect class="cls-4" x="43.78" width="26.27" height="26.27" rx="3.1"/><rect class="cls-4" x="87.55" y="1.95" width="26.27" height="26.27" rx="3.1"/><rect class="cls-4" y="38.81" width="26.27" height="26.27" rx="3.1"/><rect class="cls-4" x="43.78" y="38.81" width="26.27" height="26.27" rx="3.1"/><rect class="cls-4" x="87.55" y="40.76" width="26.27" height="26.27" rx="3.1"/><rect class="cls-4" y="79.57" width="26.27" height="26.27" rx="3.1"/><rect class="cls-4" x="43.78" y="79.57" width="26.27" height="26.27" rx="3.1"/><rect class="cls-4" x="87.55" y="81.52" width="26.27" height="26.27" rx="3.1"/><line class="cls-5" x1="13.14" y1="51.95" x2="56.91" y2="13.14"/><line class="cls-5" x1="13.56" y1="51.48" x2="56.49" y2="91.22"/><line class="cls-5" x1="53.99" y1="49.83" x2="96.92" y2="89.57"/></g></g></svg>